<svg xmlns="http://www.w3.org/2000/svg" viewBox="0 0 256 256">
  <defs>
    <linearGradient id="bg" x1="20" y1="18" x2="236" y2="238" gradientUnits="userSpaceOnUse">
      <stop offset="0" stop-color="#1b2330" />
      <stop offset="0.58" stop-color="#101721" />
      <stop offset="1" stop-color="#090d14" />
    </linearGradient>
    <linearGradient id="rim" x1="24" y1="22" x2="232" y2="234" gradientUnits="userSpaceOnUse">
      <stop offset="0" stop-color="#ff7f92" />
      <stop offset="0.5" stop-color="#ff304a" />
      <stop offset="1" stop-color="#b10c27" />
    </linearGradient>
    <linearGradient id="steel" x1="84" y1="92" x2="174" y2="170" gradientUnits="userSpaceOnUse">
      <stop offset="0" stop-color="#fbfdff" />
      <stop offset="1" stop-color="#b8c4d5" />
    </linearGradient>
    <linearGradient id="glow" x1="70" y1="80" x2="186" y2="184" gradientUnits="userSpaceOnUse">
      <stop offset="0" stop-color="#ff8d52" />
      <stop offset="0.52" stop-color="#ff3851" />
      <stop offset="1" stop-color="#ff1738" />
    </linearGradient>
    <filter id="soft-glow" x="-30%" y="-30%" width="160%" height="160%">
      <feGaussianBlur stdDeviation="2.8" result="blur" />
      <feMerge>
        <feMergeNode in="blur" />
        <feMergeNode in="SourceGraphic" />
      </feMerge>
    </filter>
  </defs>

  <rect x="14" y="14" width="228" height="228" rx="62" fill="url(#bg)" />
  <rect x="14" y="14" width="228" height="228" rx="62" fill="none" stroke="url(#rim)" stroke-width="10" />

  <circle cx="128" cy="128" r="86" fill="none" stroke="#ff304a" stroke-opacity=".18" stroke-width="8" />

  <g fill="url(#steel)">
    <rect x="74" y="84" width="20" height="88" rx="2" />
    <rect x="108" y="84" width="18" height="88" rx="2" />
    <rect x="108" y="84" width="58" height="16" rx="2" />
    <rect x="108" y="120" width="44" height="14" rx="2" />
  </g>

  <g fill="url(#steel)">
    <rect x="54" y="108" width="148" height="10" rx="5" />
    <circle cx="50" cy="113" r="20" />
    <circle cx="50" cy="113" r="12" fill="#aab7c8" />
    <circle cx="206" cy="113" r="20" />
    <circle cx="206" cy="113" r="12" fill="#aab7c8" />
    <circle cx="30" cy="113" r="12" />
    <circle cx="226" cy="113" r="12" />
  </g>

  <path
    d="M94 188 146 124h-22l16-30-10 26h24z"
    fill="url(#glow)"
    stroke="#ff9a62"
    stroke-width="2"
    filter="url(#soft-glow)"
  />
</svg>
